# File created by Blade
# Date/Time:  Thu Jan 22 16:04:59 2015
# Frame Rate: 120.000 fps
#------------------------------------------------------
:FULLY-SPECIFIED
:DEGREES
1622
root 3.208377 36.977752 5.255979 2.225893 -2.576921 1.203942
RightUpLeg 5.666721 -3.420231 -7.583421
RightLeg -5.236033 -0.000000 0.000000
RightFoot -10.011572 -14.374770 20.118338
RightToeBase 10.901718 -0.000000 -0.000000
LeftUpLeg 3.420294 -0.375389 8.239339
LeftLeg -2.800851 -0.000000 0.000000
LeftFoot -4.444031 4.952584 -22.714774
LeftToeBase 7.155963 -0.000000 -0.000000
Spine 6.320109 -12.927902 -4.973905
RightShoulder -21.075619 -37.014934 -2.138852
RightArm 2.607281 -33.903802 91.744086
RightForeArm -13.468752 -0.000000 17.414143
RightHand 2.706661 -0.000000 30.228596
RightHandThumb1 -24.326973 -0.000000 -32.862282
LeftShoulder -46.286193 49.876545 -17.611401
LeftArm 21.084749 46.698004 -88.782805
LeftForeArm 66.721455 -0.000000 10.517051
LeftHand 11.109570 0.000000 1.265081
LeftHandThumb1 -26.253704 0.000000 33.147579
Head 1.435662 21.279502 5.534676
1623
root 3.205029 36.977820 5.250757 2.236576 -2.513461 1.206273
RightUpLeg 5.651275 -3.464479 -7.578870
RightLeg -5.210489 -0.000000 0.000000
RightFoot -10.029096 -14.374572 20.116579
RightToeBase 10.890291 -0.000000 -0.000000
LeftUpLeg 3.381721 -0.388020 8.246784
LeftLeg -2.794641 -0.000000 0.000000
LeftFoot -4.410594 4.914793 -22.698121
LeftToeBase 7.115340 -0.000000 -0.000000
Spine 6.333679 -12.901972 -5.004290
RightShoulder -21.072687 -37.002530 -2.118160
RightArm 2.638068 -33.948488 91.738573
RightForeArm -13.443672 -0.000000 17.421210
RightHand 2.615109 0.000000 30.234114
RightHandThumb1 -24.326973 -0.000000 -32.862282
LeftShoulder -46.269174 49.859189 -17.554722
LeftArm 21.076616 46.635910 -88.816658
LeftForeArm 66.770618 0.000000 10.532048
LeftHand 11.143228 -0.000000 1.181636
LeftHandThumb1 -26.253704 0.000000 33.147579
Head 1.410427 21.178448 5.595937
1624
root 3.200442 36.978827 5.245689 2.246924 -2.451519 1.192812
RightUpLeg 5.659557 -3.452631 -7.554797
RightLeg -5.231825 -0.000000 0.000000
RightFoot -10.029645 -14.429292 20.138391
RightToeBase 10.888505 -0.000000 -0.000000
LeftUpLeg 3.346613 -0.399215 8.271552
LeftLeg -2.793854 -0.000000 0.000000
LeftFoot -4.381201 4.883073 -22.701411
LeftToeBase 7.154459 -0.000000 -0.000000
Spine 6.347453 -12.883878 -5.015360
RightShoulder -21.069614 -36.989451 -2.106601
RightArm 2.660411 -33.948224 91.745074
RightForeArm -13.472472 -0.000000 17.426164
RightHand 2.574905 0.000000 30.212852
RightHandThumb1 -24.326973 -0.000000 -32.862282
LeftShoulder -46.260865 49.822782 -17.511597
LeftArm 21.050988 46.555334 -88.868119
LeftForeArm 66.703496 -0.000000 10.493247
LeftHand 11.100477 -0.000000 1.210404
LeftHandThumb1 -26.253704 0.000000 33.147579
Head 1.391354 21.073795 5.649229
1625
root 3.197187 36.979386 5.239344 2.264951 -2.385879 1.185715
RightUpLeg 5.648167 -3.487568 -7.538270
RightLeg -5.231487 -0.000000 0.000000
RightFoot -10.045628 -14.450814 20.182915
RightToeBase 10.894000 -0.000000 -0.000000
LeftUpLeg 3.304697 -0.443239 8.286165
LeftLeg -2.799082 -0.000000 0.000000
LeftFoot -4.357582 4.882191 -22.700757
LeftToeBase 7.124319 -0.000000 -0.000000
Spine 6.348635 -12.860827 -5.027286
RightShoulder -21.069330 -36.978572 -2.092724
RightArm 2.663776 -33.919472 91.767903
RightForeArm -13.447326 -0.000000 17.417305
RightHand 2.601234 -0.000000 30.299059
RightHandThumb1 -24.326973 -0.000000 -32.862282
LeftShoulder -46.252259 49.788143 -17.450663
LeftArm 21.008326 46.436329 -88.943756
LeftForeArm 66.671446 -0.000000 10.467670
LeftHand 11.173021 -0.000000 1.128406
LeftHandThumb1 -26.253704 0.000000 33.147579
Head 1.381524 20.975218 5.711836
1626
root 3.193677 36.980196 5.235002 2.263809 -2.322922 1.177138
RightUpLeg 5.657139 -3.536701 -7.522335
RightLeg -5.230524 -0.000000 0.000000
RightFoot -10.045582 -14.449285 20.202772
RightToeBase 10.892608 -0.000000 -0.000000
LeftUpLeg 3.282400 -0.484374 8.301691
LeftLeg -2.796886 -0.000000 0.000000
LeftFoot -4.344674 4.882538 -22.694720
LeftToeBase 7.124311 -0.000000 -0.000000
Spine 6.369633 -12.842917 -5.038539
RightShoulder -21.072086 -36.974004 -2.082179
RightArm 2.677274 -33.834005 91.793802
RightForeArm -13.427076 0.000000 17.361236
RightHand 2.692226 0.000000 30.168761
RightHandThumb1 -24.326973 -0.000000 -32.862282
LeftShoulder -46.259195 49.752149 -17.411056
LeftArm 20.983113 46.345622 -88.990329
LeftForeArm 66.727081 -0.000000 10.471855
LeftHand 11.180252 0.000000 0.920354
LeftHandThumb1 -26.253704 0.000000 33.147579
Head 1.378882 20.869153 5.741002
